<?xml version="1.0" encoding="UTF-8" standalone="no"?>
<svg xmlns:dc="http://purl.org/dc/elements/1.1/" xmlns:cc="http://web.resource.org/cc/" xmlns:xlink="http://www.w3.org/1999/xlink" xmlns:rdf="http://www.w3.org/1999/02/22-rdf-syntax-ns#" xmlns="http://www.w3.org/2000/svg" version="1.0" width="937" height="588" viewBox="4.5 0 937 588">
<metadata><rdf:RDF><cc:Work rdf:about="">
 <dc:title>USA with flag on top</dc:title>
 <dc:date>2007-06-28</dc:date>
 <dc:creator><cc:Agent><dc:title>Lokal_Profil</dc:title></cc:Agent></dc:creator>
 <cc:license rdf:resource="http://creativecommons.org/licenses/by-sa/2.5/"/>
 <dc:rights><cc:Agent><dc:title>cc-by-sa-2.5</dc:title></cc:Agent></dc:rights>
 <dc:format>image/svg+xml</dc:format>
 <dc:type rdf:resource="http://purl.org/dc/dcmitype/StillImage"/>
 </cc:Work>
 <cc:License rdf:about="http://creativecommons.org/licenses/by-sa/2.5/">
   <cc:permits rdf:resource="http://web.resource.org/cc/Reproduction"/>
   <cc:permits rdf:resource="http://web.resource.org/cc/Distribution"/>
   <cc:requires rdf:resource="http://web.resource.org/cc/Notice"/>
   <cc:requires rdf:resource="http://web.resource.org/cc/Attribution"/>
   <cc:permits rdf:resource="http://web.resource.org/cc/DerivativeWorks"/>
   <cc:requires rdf:resource="http://web.resource.org/cc/ShareAlike"/>
 </cc:License>
 </rdf:RDF>
</metadata>
  <defs>
  <path id="Map-outline" d="M 805.21607,266.06202 L 805.41802,265.40356 L 809.72912,265.34184 L 812.80066,266.31181 L 814.90225,266.63513 L 815.87221,264.53354 L 814.41727,262.43196 L 814.41727,260.65369 L 811.99236,258.5521 L 809.89078,253.05565 L 811.18406,247.72085 L 811.0224,245.61927 L 809.72912,244.32598 C 809.72912,244.32598 811.18406,242.70938 811.18406,242.06274 C 811.18406,241.41609 811.66904,239.96115 811.66904,239.96115 L 813.60897,238.66787 L 815.54889,237.05126 L 816.03387,238.02123 L 814.57893,239.63783 L 813.28565,243.35602 L 813.60897,244.48764 L 815.38723,244.81096 L 815.87221,250.30742 L 813.77063,251.27738 L 814.09395,254.83391 L 814.57893,254.67225 L 815.71055,252.73233 L 817.32716,254.51059 L 815.71055,255.80388 L 815.38723,259.19875 L 817.9738,262.59362 L 821.85365,263.0786 L 823.47026,262.2703 L 826.70681,266.45323 L 828.06516,266.98953 L 828.76271,267.29867 L 828.90662,269.2457 L 828.13975,272.34331 L 826.55275,276.52638 L 826.10686,281.97549 L 827.5772,286.6163 L 829.74147,284.70016 L 831.56944,279.722 L 831.10769,276.33156 L 831.52578,271.74574 L 834.44573,267.96663 L 835.21614,264.74879 L 834.71883,264.19258 L 836.72641,260.16871 L 836.95336,255.30492 L 836.7274,254.59089 L 834.46317,247.23587 L 833.4932,247.72085 L 829.93667,245.29595 L 828.15841,240.60779 L 826.21848,237.05126 L 823.95524,236.0813 L 821.85365,232.52477 L 822.35259,230.42318 L 822.86297,230.92722 L 823.95524,233.17141 L 827.18845,236.0813 L 832.03826,238.34455 L 836.07977,238.99119 L 836.24143,240.44613 L 835.43313,241.41609 L 835.75645,244.16432 L 836.56475,244.16432 L 838.66634,241.73942 L 839.47464,236.8896 L 842.22287,232.84809 L 845.29442,226.38167 L 846.42604,220.88522 L 845.7794,219.75359 L 845.61774,210.37728 L 844.00113,206.98242 L 842.86951,207.79072 L 840.12128,208.11404 L 839.6363,207.62906 L 840.76793,206.65909 L 842.86951,204.71917 L 842.93257,203.62534 L 843.47304,203.5396 L 844.64778,204.07253 L 848.68929,202.9409 L 854.50907,201.00098 L 857.09563,200.03101 L 864.20869,194.69622 L 868.08854,191.78633 L 871.48341,188.2298 L 867.28024,186.6132 L 865.98696,188.06814 L 863.07707,190.81637 L 855.15571,194.69622 L 852.89246,194.53456 L 851.27586,193.88792 L 850.14423,194.53456 L 847.88099,197.12113 L 846.42604,198.41441 L 845.13276,198.73773 L 844.80944,197.44445 L 846.74936,195.66618 L 845.95281,193.98776 L 846.96715,194.21757 L 851.9225,190.81637 L 855.47903,187.58316 L 857.41895,185.48157 L 858.22726,186.12821 L 860.97548,184.67327 L 866.14862,183.54165 L 873.19331,180.05038 L 874.07001,179.82344 L 876.97987,178.85349 L 879.40478,176.91357 L 880.5364,175.1353 L 881.82968,175.29696 L 884.74063,173.76056 L 885.25981,173.3875 L 887.32614,172.38707 L 886.84116,170.12383 L 887.64946,168.66888 L 890.55935,167.21394 L 891.36765,170.28549 L 890.88267,172.06375 L 888.45776,173.5187 L 888.45776,174.48866 L 890.39769,173.03372 L 894.27754,168.50722 L 898.15739,166.5673 L 902.36056,165.11235 L 902.03724,162.68745 L 901.06728,159.77756 L 899.12735,157.35265 L 897.34909,156.54435 L 895.2475,156.70601 L 894.76252,157.19099 L 895.73248,158.48427 L 897.18743,157.67597 L 899.28901,159.29258 L 900.09732,162.0408 L 898.31905,163.81907 L 896.05581,164.78903 L 892.49928,164.30405 L 888.61942,158.32261 L 886.35618,155.73605 L 884.57791,155.73605 L 883.44629,156.54435 L 881.50636,153.95778 L 881.82968,152.50284 L 884.25459,147.3297 L 881.36535,142.91686 L 880.79902,142.42476 L 881.66802,141.34826 L 882.75824,138.05724 L 883.13131,136.93803 L 884.25459,130.67867 L 884.41625,126.31384 L 885.8712,125.02056 L 884.90123,121.78735 L 887.97278,118.23082 L 889.58939,119.68576 L 890.88267,119.20078 L 896.21747,116.12923 L 896.54079,113.21934 L 899.45068,112.73436 L 901.06728,110.14779 L 900.90562,108.53119 L 900.5823,105.45964 L 901.3906,104.16636 L 901.06728,103.03473 L 899.774,101.57979 L 901.87558,100.28651 L 903.65385,103.51972 L 905.10879,103.19639 L 905.43211,104.48968 L 905.43211,106.10628 L 907.37204,106.26794 L 907.85702,103.51972 L 908.342,102.87307 L 906.7254,101.41813 L 907.69536,99.963185 L 910.12027,98.508241 L 911.09023,97.053296 L 912.86849,96.891636 C 912.86849,96.891636 913.19182,98.993222 913.83846,98.993222 C 914.4851,98.993222 915.13174,98.993222 915.13174,98.993222 L 919.98155,93.496766 L 923.37642,90.425217 L 925.31635,89.778575 L 927.41794,85.090422 L 927.41794,83.150496 L 925.15469,79.432305 L 923.21476,77.330719 L 920.46654,77.49238 L 920.95152,78.624003 L 920.78986,79.108984 L 919.98155,79.108984 L 917.07167,76.845738 L 916.91001,71.995924 L 916.1017,70.055998 L 910.12027,70.055998 L 901.06728,40.148811 L 899.12735,39.178849 L 893.14592,36.753942 L 891.69097,36.592281 L 889.91271,38.370546 L 885.8712,41.280435 L 885.8712,42.250397 L 885.06289,43.0587 L 882.31467,42.412058 L 881.02138,40.148811 L 881.02138,39.017188 L 879.7281,38.855528 L 878.43481,38.855528 L 876.33323,43.0587 L 873.42334,51.950026 L 871.64507,56.79984 L 871.80674,61.649654 L 871.9684,63.104598 L 871.16009,65.852826 L 870.35179,66.822789 L 870.35179,72.804226 L 872.29172,75.229133 L 870.83677,79.270645 L 868.2502,83.958798 L 867.4419,89.455254 L 867.4419,92.041822 L 865.92811,91.631923 L 864.50757,91.750088 L 863.65083,92.208542 L 862.75375,92.203482 L 862.10711,93.820087 L 861.46047,93.335106 L 860.4905,92.365143 L 859.03556,94.305068 L 858.98709,99.337122 L 858.06661,99.63916 L 831.81913,106.3866 L 831.19711,106.78334 L 823.63192,108.85451 L 819.10542,110.30945 L 815.87221,110.14779 L 810.37576,111.44108 L 807.2944,112.68702 L 804.8793,114.51263 L 802.77772,116.93753 L 800.02949,120.65572 L 797.1196,125.18222 L 795.66465,128.09211 L 795.01801,128.90041 L 789.19824,134.39686 L 789.3599,136.98343 L 790.1682,138.11506 L 791.94646,138.92336 L 793.72473,138.92336 L 793.72473,140.3783 L 792.59311,142.47989 L 792.91643,143.93483 L 794.37137,146.03642 L 794.20971,148.29966 L 792.26978,149.43129 L 790.1682,149.43129 L 788.55159,151.37121 L 786.77333,154.60442 L 784.67174,156.38269 L 779.49861,156.86767 L 776.91204,157.99929 L 774.81045,159.29258 L 773.19385,159.13092 L 771.25392,157.83763 L 764.94917,157.99929 L 761.71596,158.48427 L 757.67444,159.77756 L 753.30961,161.2325 L 750.39972,163.01077 L 752.33965,169.15387 L 754.11791,169.31553 L 755.4112,172.38707 L 755.57286,173.35704 L 754.44123,174.327 L 752.33965,177.07523 L 751.85467,178.69183 L 749.91474,180.4701 L 748.13648,181.60172 L 747.16651,183.21833 L 745.87323,184.34995 L 744.44513,185.47533 L 743.4394,185.99452 L 737.95187,191.62467 L 736.65858,192.10965 L 732.45629,195.11854 L 731.43589,195.0077 L 725.34235,199.06105 L 721.4625,201.3243 L 718.06763,205.04249 L 714.02612,208.92234 L 710.79291,209.73064 L 707.88302,210.21562 L 702.38656,212.80219 L 700.28498,212.96385 L 696.89011,209.8923 L 691.71697,210.53895 L 689.13041,209.084 L 686.74934,207.73317 L 685.59749,207.4083 L 685.73554,206.82075 L 685.8972,205.36581 L 687.99878,201.64762 L 689.99934,199.90977 L 689.77705,194.85788 L 691.37404,193.26089 L 692.46466,192.91795 L 692.68694,189.36142 L 694.22271,186.3303 L 695.2735,186.93652 L 695.43516,187.58316 L 696.24347,187.74482 L 698.18339,186.77486 L 697.86007,177.23689 L 694.62686,168.9922 L 692.36361,159.93922 L 689.93871,156.70601 L 687.35214,154.92774 L 685.73554,156.05937 L 681.85568,157.83763 L 679.91576,162.84911 L 677.16753,166.5673 L 676.03591,167.21394 L 674.58096,166.5673 C 674.58096,166.5673 671.9944,165.11235 672.15606,164.46571 C 672.31772,163.81907 672.64104,159.45424 672.64104,159.45424 L 676.03591,158.16095 L 676.84421,154.76608 L 677.49085,152.17952 L 679.91576,150.56291 L 679.59244,140.53996 L 677.97583,138.27672 L 676.68255,137.46841 L 675.87425,135.36683 L 676.68255,134.55853 L 678.29915,134.88185 L 678.46081,133.26524 L 676.03591,131.00199 L 674.74262,128.41543 L 672.15606,128.41543 L 667.62956,126.96048 L 662.13311,123.56561 L 659.38488,123.56561 L 658.73824,124.21226 L 657.76827,123.72727 L 654.69673,121.46403 L 651.78684,123.24229 L 648.87695,125.50554 L 649.20027,129.06207 L 650.17023,129.38539 L 652.27182,129.87037 L 652.7568,130.67867 L 650.17023,131.48698 L 647.58367,131.8103 L 646.12872,133.58856 L 645.8054,135.69015 L 646.12872,137.30675 L 646.45204,142.80321 L 642.89551,144.9048 L 642.24887,144.74313 L 642.24887,140.53996 L 643.54215,138.11506 L 644.1888,135.69015 L 643.38049,134.88185 L 641.44057,135.69015 L 640.4706,139.89332 L 637.72238,141.02494 L 635.94411,142.96487 L 635.78245,143.93483 L 636.42909,144.74313 L 635.78245,147.3297 L 633.5192,147.81468 L 633.5192,148.94631 L 634.32751,151.37121 L 633.19588,157.51431 L 631.57928,161.55582 L 632.22592,166.24398 L 632.7109,167.3756 L 631.9026,169.80051 L 631.57928,170.60881 L 631.25596,173.35704 L 634.81249,179.33847 L 637.72238,185.80489 L 639.17732,190.65471 L 638.36902,195.34286 L 637.39906,201.3243 L 634.97415,206.49743 L 634.65083,209.24566 L 631.39196,212.33081 L 630.36734,213.12513 L 627.53777,214.74212 L 625.43618,216.68204 L 624.30456,217.00536 L 622.84961,216.0354 L 619.77855,215.14589 L 618.91895,215.34019 L 618.64644,214.4188 L 617.83814,211.83223 L 616.54486,208.11404 L 614.92825,206.33577 L 613.47331,203.74921 L 613.23974,198.26025 L 612.94089,197.18116 L 613.31165,194.21124 L 611.69504,189.68474 L 611.0484,183.54165 L 609.91678,181.11674 L 610.88674,178.04519 L 611.69504,175.1353 L 613.14999,172.54874 L 612.50334,169.15387 L 611.8567,165.59734 L 612.34168,163.81907 L 614.28161,161.39416 L 614.44327,158.64593 L 613.63497,157.35265 L 614.28161,154.76608 L 614.76659,151.53287 L 617.51482,145.87476 L 620.42471,139.08502 L 620.58637,136.82177 L 620.26305,135.85181 L 619.45474,136.33679 L 615.25157,142.64155 L 612.50334,146.68306 L 610.56342,148.46133 L 609.75512,150.72457 L 608.30017,151.53287 L 607.16855,153.4728 L 605.7136,153.14948 L 605.55194,151.37121 L 606.84523,148.94631 L 608.94681,144.25815 L 610.72508,142.64155 L 611.8264,140.34999 L 612.39377,139.45774 L 615.57489,132.45694 L 616.54486,128.41543 L 618.48478,124.05059 L 619.29308,123.88893 L 620.42471,125.50554 L 621.07135,125.50554 L 625.59784,123.08063 L 627.05279,124.69724 L 627.53777,124.8589 L 628.83105,123.72727 L 629.96267,120.65572 L 632.38758,119.84742 L 639.33898,119.20078 L 641.27891,116.61421 L 646.45204,116.45255 L 652.27182,117.74584 L 654.05008,117.74584 L 657.28329,116.29089 L 659.54654,116.45255 L 661.64813,115.80591 L 665.36632,116.29089 L 666.17462,116.61421 L 667.4679,116.29089 L 666.17462,115.32093 L 664.88134,114.67429 L 661.64813,111.60274 L 661.64813,104.65134 L 660.19318,104.16636 L 659.06156,105.29798 L 652.91846,106.91458 L 650.97853,107.39957 L 648.06865,106.59126 L 647.58367,106.26794 L 647.58367,100.60983 L 646.12872,100.44817 L 643.54215,101.74145 L 639.01566,103.68138 L 632.38758,104.0047 L 628.99271,105.13632 L 624.9512,108.69285 L 623.33459,109.66281 L 622.20297,109.66281 L 620.90969,110.47112 L 619.29308,109.98613 L 617.67648,108.69285 L 616.22153,109.66281 L 612.34168,109.82447 L 609.59345,107.07625 L 608.13851,104.0047 L 606.68357,102.87307 L 603.45036,101.90311 L 601.18711,101.90311 L 599.89383,100.60983 L 596.3373,103.51972 L 595.36733,104.65134 L 594.55903,104.16636 L 594.88235,101.57979 L 597.30726,98.34658 L 597.79224,95.921673 L 600.05549,95.113371 L 601.51043,92.041822 L 605.22862,91.071859 L 605.55194,90.101896 L 604.42032,88.970273 L 599.73217,89.455254 L 595.36733,91.880161 L 593.10409,94.143408 L 591.8108,95.921673 L 590.03254,96.729975 L 588.09261,99.639864 L 587.93095,100.93315 L 583.56612,103.03473 L 581.14121,104.97466 L 575.15978,105.94462 L 574.51313,106.59126 L 574.51313,107.56123 L 570.9566,109.82447 L 568.20837,110.63278 L 567.49209,111.21318 L 566.47456,111.63491 L 565.94513,112.89602 L 564.81351,112.73436 L 564.16686,111.60274 L 561.41864,110.79444 L 560.28701,110.9561 L 558.50875,111.92606 L 557.53878,111.27942 L 558.18543,109.33949 L 560.12535,106.26794 L 561.25697,105.13632 L 559.31705,103.68138 L 557.21546,104.48968 L 554.30557,106.4296 L 546.86919,109.66281 L 543.9593,110.30945 L 541.04942,109.82447 L 540.06769,108.94622 L 539.63268,108.39354 L 543.47432,105.45964 L 544.76761,105.29798 L 549.2941,100.28651 L 551.07237,99.478203 L 553.33561,95.598352 L 555.76052,92.041822 L 558.83207,89.455254 L 563.60681,87.448357 L 572.85259,83.387229 L 576.79131,81.550104 L 577.40341,79.270645 L 572.9635,79.64131 L 572.24989,80.725589 L 571.60324,80.725589 L 569.82498,77.65404 L 560.93365,77.977361 L 559.96369,78.785663 L 558.99373,78.785663 L 558.50875,77.49238 L 557.70044,75.714115 L 555.11388,76.199096 L 551.88067,79.432305 L 550.26406,80.240608 L 547.19251,80.240608 L 544.60595,79.270645 L 544.60595,77.169059 L 543.31266,77.007398 L 542.82768,77.49238 L 540.24111,76.199096 L 539.75613,73.289207 L 538.30119,73.774189 L 537.81621,74.744152 L 535.3913,74.25917 L 530.0565,71.834263 L 526.17665,69.247696 L 523.26676,69.247696 L 521.97348,68.277733 L 519.71023,68.924375 L 518.57861,70.055998 L 518.25529,71.349282 L 513.40548,71.349282 L 513.40548,69.247696 L 507.10072,68.924375 L 506.7774,67.469431 L 501.92758,67.469431 L 500.31098,65.852826 L 498.85603,59.709728 L 498.04773,54.213272 L 496.10781,53.40497 L 493.84456,52.919988 L 493.19792,53.081649 L 492.8746,61.326333 L 462.74218,61.291062 L 461.64538,61.243718 L 433.22188,60.679691 L 414.63093,60.033049 L 388.11861,58.739765 L 363.17227,56.855896 L 361.88845,56.374463 L 331.21413,53.56663 L 301.95358,50.0101 L 272.69304,45.968588 L 240.36094,40.633793 L 221.93165,37.238923 L 189.208,30.306187 L 188.08467,30.145706 L 175.08853,27.617595 L 174.36801,27.215777 L 159.20739,23.821104 L 136.2516,18.162988 L 116.2057,12.504871 L 107.6377,10.564946 L 97.938071,7.8167177 L 93.573239,6.3617734 L 92.441615,7.1700758 L 92.118294,7.9783781 L 94.543201,12.828192 L 95.674825,15.41476 L 93.89656,18.97129 L 93.89656,21.234537 L 94.543201,22.689481 L 93.734899,24.467746 L 94.219881,27.700955 L 95.189843,28.994239 L 95.028183,30.287523 L 93.573239,30.449183 L 92.926597,28.509258 L 91.794974,26.084351 L 90.016708,24.629406 L 90.340029,22.52782 L 92.603276,22.042839 L 92.279955,20.264574 L 91.956634,19.13295 L 89.855048,20.426234 L 88.561764,21.557857 L 88.561764,23.982765 L 86.298518,24.144425 L 82.903645,23.174462 L 79.993756,21.719518 L 76.922205,21.072876 L 72.395712,18.97129 L 69.162503,17.031364 L 66.414275,14.444797 L 63.989368,11.534908 L 61.887782,11.049927 L 59.624535,20.426234 L 61.4028,23.659444 L 61.4028,31.580807 L 60.756158,34.490695 L 62.211103,41.603756 L 64.959331,44.351984 L 60.594498,44.998625 L 60.432837,48.716816 L 63.019405,49.84844 L 61.4028,53.889951 L 58.654572,54.213272 L 58.331251,57.123161 L 60.594498,60.033049 L 58.492912,62.619617 L 56.229665,69.086035 L 52.996456,79.108984 L 49.763246,85.575403 L 44.751772,99.639864 L 38.285353,113.21934 L 30.20233,125.82886 L 28.262404,128.73875 L 27.454102,137.30675 L 26.160818,143.28819 L 28.86901,146.81562 L 28.387579,147.77848 L 26.80746,152.50284 L 26.645799,159.93922 L 21.472664,171.74043 L 18.401116,174.327 L 18.077795,175.45862 L 16.299529,176.26693 L 14.844585,180.4701 L 14.036283,183.70331 L 16.784511,187.90648 L 18.401116,192.10965 L 19.532739,195.66618 L 19.209418,202.1326 L 17.431153,205.20415 L 16.784511,211.02393 L 15.814548,214.74212 L 17.592813,218.62197 L 20.341041,223.14846 L 22.604288,227.99828 L 23.897571,232.03979 L 23.574251,235.273 L 23.25093,235.75798 L 23.25093,237.85956 L 28.909046,244.16432 L 28.424065,246.58923 L 27.777423,248.85248 L 27.130781,250.7924 L 27.292441,259.03709 L 29.394027,262.75528 L 31.333953,265.34184 L 34.082181,265.82683 L 35.052144,268.57505 L 33.920521,272.13158 L 31.818934,273.74819 L 30.687311,273.74819 L 29.879009,277.62804 L 30.36399,280.53793 L 33.5972,284.90276 L 35.213804,290.23756 L 36.668748,294.92571 L 37.962032,297.99726 L 41.356902,303.81704 L 42.811846,306.4036 L 43.296828,309.31349 L 44.913432,310.28345 L 44.913432,312.70836 L 44.10513,314.64829 L 42.326865,321.76135 L 41.841883,323.70127 L 44.266791,326.4495 L 48.469963,326.93448 L 52.996456,328.71275 L 56.876307,330.81433 L 59.786196,330.81433 L 62.696084,333.88588 L 65.282651,338.7357 L 66.414275,340.99894 L 70.294126,343.10053 L 75.14394,343.90883 L 76.598884,346.01042 L 77.245526,349.24363 L 75.790582,349.89027 L 76.113903,350.86023 L 79.347114,351.66853 L 82.095342,351.8302 L 85.005231,356.51835 L 88.885085,360.72152 L 89.693387,362.98477 L 92.279955,367.18794 L 92.603276,370.42115 L 92.603276,379.79746 L 93.088257,381.57572 L 103.11121,383.03067 L 122.83378,385.77889 L 136.74132,386.75359 L 137.74699,387.50041 L 135.11998,389.65874 L 134.79666,391.11369 L 135.28164,392.08365 L 154.19591,402.75324 L 166.32045,410.35128 L 181.03155,418.91929 L 197.84424,428.94224 L 210.13044,431.36715 L 235.25838,434.07206 L 236.86315,434.87445 L 252.32382,436.8636 L 253.6171,426.84065 L 270.26813,429.42722 L 282.72425,431.045 L 283.68593,431.04382 L 285.62584,431.52878 L 288.21243,434.43865 L 289.66738,438.80352 L 294.35554,441.06677 L 295.64882,444.29998 L 302.76189,452.22135 L 304.05517,453.83795 L 309.06664,455.93954 L 310.19827,458.04112 L 311.81487,459.01109 L 312.29985,461.75931 L 315.53306,468.22573 L 315.53306,476.30876 L 317.79631,480.99691 L 325.23269,488.75661 L 330.40583,490.8582 L 332.18409,492.79812 L 332.18409,493.44477 L 336.06394,495.70801 L 338.00387,496.35465 L 339.78213,497.48628 L 342.3687,498.45624 L 344.79361,496.03133 L 349.15844,489.88824 L 350.1284,486.17004 L 352.39165,482.93684 L 355.94818,481.48189 L 360.47467,479.70363 L 363.54622,481.96687 L 370.9826,482.61351 L 377.77234,483.74514 L 380.35891,485.84672 L 380.35891,486.97835 L 382.94548,490.0499 L 388.92692,495.38469 L 389.08858,496.83964 L 390.86684,498.77956 L 391.67514,502.98273 L 397.00994,515.26893 L 396.84828,517.20885 L 401.05145,519.79542 L 404.60798,526.4235 L 408.00285,530.78833 L 411.23606,532.08162 L 412.85266,534.34486 L 411.55938,538.7097 L 412.20602,539.67966 L 413.49931,540.3263 L 413.17599,543.72117 L 412.52934,544.36781 L 413.17599,546.63106 L 416.40919,548.57099 L 417.70248,555.0374 L 419.80406,558.91726 L 427.40211,562.31213 L 432.57524,563.44375 L 436.77841,566.5153 L 440.01162,567.16194 L 441.30491,566.67696 L 446.80136,567.80858 L 452.45948,571.68843 L 455.53103,569.74851 L 456.50099,568.29356 L 454.72273,565.54533 L 453.75276,559.40224 L 451.9745,552.45084 L 451.1662,550.02593 L 451.9745,545.49944 L 453.10612,541.61959 L 454.3994,537.09309 L 455.85435,531.59664 L 453.5911,529.65671 L 454.56107,527.71679 L 458.60258,527.39346 L 462.48243,521.89701 L 465.8773,521.25037 L 471.69708,517.69384 L 473.47534,516.23889 L 479.7801,512.84402 L 485.43821,510.41911 L 490.77301,507.18591 L 493.52124,505.08432 L 499.17935,499.74952 L 500.47264,498.94122 L 502.57422,497.48628 L 505.16079,495.54635 L 506.13075,493.60643 L 515.99204,489.07993 L 521.65692,487.49475 L 522.29848,487.36687 L 526.98496,485.84672 L 535.06798,485.5234 L 545.41425,489.07993 L 551.88067,490.21156 L 555.59886,488.75661 L 558.83207,489.88824 L 562.06528,490.8582 L 562.87358,488.75661 L 559.64037,487.62499 L 557.0538,488.10997 L 554.30557,486.49337 C 554.30557,486.49337 554.46724,485.20008 555.11388,485.03842 C 555.76052,484.87676 558.18543,484.06846 558.18543,484.06846 L 559.96369,485.5234 L 561.74196,484.55344 L 564.97517,485.20008 L 566.43011,487.62499 L 566.75343,489.88824 L 571.27992,490.21156 L 573.05819,491.98982 L 572.24989,493.60643 L 570.9566,494.41473 L 572.57321,496.03133 L 580.97955,499.58786 L 584.53608,498.29458 L 585.50605,495.86967 L 588.09261,495.22303 L 589.87088,493.76809 L 591.16416,494.73805 L 591.97246,497.64794 L 589.70922,498.45624 L 590.35586,499.10288 L 593.75073,497.8096 L 596.01398,494.41473 L 596.82228,493.92975 L 594.72069,493.60643 L 595.52899,491.98982 L 595.36733,490.53488 L 597.46892,490.0499 L 598.60054,488.75661 L 599.24718,489.56491 C 599.24718,489.56491 599.08552,492.63646 599.89383,492.63646 C 600.70213,492.63646 604.097,493.28311 604.097,493.28311 L 608.13851,495.22303 L 609.10847,496.67798 L 612.01836,496.67798 L 613.14999,497.64794 L 615.41323,494.57639 L 615.41323,493.12144 L 614.11995,493.12144 L 610.72508,490.37322 L 604.9053,489.56491 L 601.67209,487.30167 L 602.80372,484.55344 L 605.06696,484.87676 L 605.22862,484.23012 L 603.45036,483.26016 L 603.45036,482.77517 L 606.68357,482.77517 L 608.46183,479.70363 L 607.16855,477.7637 L 606.84523,475.01547 L 605.39028,475.17713 L 603.45036,477.27872 L 602.80372,479.86529 L 599.73217,479.21864 L 598.7622,477.44038 L 600.54047,475.50045 L 602.56122,473.7222 L 603.31778,473.20692 L 604.42032,472.4289 L 607.00689,468.22573 L 608.78515,469.03403 L 615.57489,467.09411 L 617.67648,467.41743 L 619.13142,468.22573 L 624.30456,468.22573 L 624.55882,466.96958 L 625.59784,466.77079 L 628.34607,466.77079 L 628.99271,466.93245 L 630.28599,464.18422 L 631.74094,459.81939 L 634.00419,460.46603 L 637.07573,466.44747 L 637.07573,467.41743 L 634.32751,469.35736 L 637.07573,469.68068 L 642.61779,467.10778 L 643.29612,467.22209 L 646.77536,466.60913 L 652.7568,464.50754 L 658.73824,464.02256 L 663.10307,463.37592 L 670.70111,465.15418 L 678.78414,469.03403 L 680.40074,470.48898 L 683.31063,471.6206 L 684.92723,473.56053 L 685.25055,476.30876 L 688.48376,475.01547 L 692.36361,475.01547 L 695.92015,473.07555 L 699.63834,469.51902 L 702.70988,469.68068 L 703.19487,468.54905 L 702.38656,467.57909 L 702.54822,465.63917 L 706.58974,464.83086 L 709.1763,464.83086 L 712.08619,466.28581 L 716.28936,467.74075 L 718.71427,471.45894 L 721.4625,472.4289 L 722.59412,475.82377 L 725.98899,477.44038 L 727.6056,480.02695 L 729.54552,480.67359 L 734.71866,481.96687 L 736.01194,485.03842 L 739.08349,488.75661 L 739.08349,498.29458 L 737.62855,502.98273 L 737.95187,505.73096 L 739.24515,510.58078 L 741.02342,514.62229 L 741.83172,514.13731 L 743.28666,509.61081 L 740.7001,508.64085 L 740.37677,507.99421 L 741.99338,507.34757 L 746.51987,508.31753 L 746.68153,509.93413 L 743.44832,515.43059 L 741.34674,517.8555 L 744.90327,521.57369 L 747.48983,524.64524 L 750.39972,529.98003 L 753.30961,533.85988 L 755.4112,538.87136 L 757.18946,539.19468 L 758.80607,537.09309 L 760.58433,538.22472 L 763.1709,542.26623 L 763.81754,545.82276 L 766.88909,550.18759 L 767.69739,548.89431 L 771.57724,549.21763 L 775.13377,551.48087 L 778.52864,556.65401 L 779.33695,560.04888 L 779.66027,562.95877 L 780.79189,563.92873 L 782.08518,564.41371 L 784.51008,563.44375 L 785.96503,561.82714 L 789.84488,561.66548 L 792.91643,560.21054 L 795.66465,556.97733 L 795.17967,555.0374 L 794.85635,552.6125 L 795.50299,550.67257 L 795.17967,548.73265 L 797.60458,547.43936 L 797.9279,544.04449 L 797.28126,542.26623 L 796.79628,530.30335 L 795.50299,522.70531 L 790.9765,514.46063 L 787.41997,508.64085 L 784.8334,503.30605 L 781.92351,500.39617 L 779.01363,492.95978 L 779.82193,491.6665 L 780.95355,490.37322 L 779.33695,487.46333 L 775.29544,483.74514 L 770.44562,478.24868 L 766.72743,471.94392 L 761.39264,462.56762 L 757.66294,452.82536 L 755.39728,445.50676 L 755.37832,444.61734 L 754.6029,438.31855 L 756.86614,428.2956 L 758.32109,424.09242 L 757.8361,421.50586 L 761.17051,415.26156 L 760.66021,413.90988 L 761.23097,412.93785 L 763.33256,411.64457 L 768.34404,406.14811 L 767.37407,402.9149 L 770.28396,402.75324 L 773.84049,399.35837 L 775.4571,398.55007 L 777.72034,395.1552 L 780.46857,392.40697 L 782.57016,388.85044 L 784.99506,388.2038 L 786.12669,385.45557 L 787.74329,384.64727 L 788.22827,378.34251 L 790.81484,372.19941 L 796.23601,366.74107 L 796.51628,365.93803 L 801.96941,364.60137 L 806.65757,364.11639 L 807.14255,361.69148 L 809.08247,355.22506 L 812.47734,350.53691 L 818.94376,345.20212 L 824.1169,342.77721 L 826.86512,342.13057 L 827.99675,342.61555 L 829.29003,342.61555 L 832.36158,337.76573 L 834.30151,334.2092 L 833.00822,334.69419 L 830.74498,336.95743 L 830.09833,335.34083 L 825.89516,335.34083 L 827.83509,329.03607 L 827.02679,327.74279 L 825.08686,327.74279 L 825.08686,326.77282 L 824.76354,325.47954 L 826.38014,326.77282 L 827.83509,326.93448 L 830.25999,327.2578 L 833.97819,325.6412 L 835.27147,322.73131 L 835.91811,320.62972 L 838.50468,319.33644 L 838.828,315.13327 L 838.0197,314.48663 L 840.4446,314.32497 L 839.79796,312.06172 L 837.37306,309.63681 L 833.81653,303.17039 L 832.10653,298.47179 L 831.18615,297.54706 L 827.57853,291.53513 L 821.77751,293.22096 L 820.20529,291.72666 L 822.75833,290.34535 L 822.26654,287.82122 L 820.49343,286.03584 L 820.37189,284.62394 L 818.0909,283.08107 L 818.00194,281.46555 L 820.69593,281.56049 L 820.91773,280.17589 L 819.68832,279.38612 L 820.16727,277.45573 L 818.79254,276.35318 L 819.23203,271.6631 L 818.36396,270.46308 L 815.17352,270.06055 L 813.02121,267.97209 L 808.16474,267.02998 L 805.21607,266.06202 z M 767.94269,577.91184 L 770.36761,577.2652 L 771.66089,577.02271 L 773.11585,574.67862 L 775.45993,573.06201 L 776.75322,573.547 L 778.45066,573.87032 L 778.85481,574.92111 L 775.37911,576.13357 L 771.17591,577.58852 L 768.83183,578.80098 L 767.94269,577.91184 z M 781.44139,572.90035 L 782.65385,573.95115 L 785.40209,571.84956 L 790.7369,567.64637 L 794.4551,563.7665 L 796.96085,557.1384 L 797.93082,555.44096 L 798.09248,552.04608 L 797.365,552.53106 L 796.39504,555.36013 L 794.94008,559.96746 L 791.70686,565.22146 L 787.34202,569.42464 L 783.94714,571.36457 L 781.44139,572.90035 z M 836.00199,331.45961 L 838.58857,328.95386 L 841.74095,326.36728 L 843.27673,325.72064 L 843.43839,323.69988 L 842.79175,317.55676 L 841.3368,315.21268 L 840.69015,313.35358 L 841.41763,313.11108 L 844.16587,318.60756 L 844.57002,323.05323 L 844.40836,326.44812 L 841.01348,327.98389 L 838.18441,330.40881 L 837.05279,331.62127 L 836.00199,331.45961 z M 899.97704,173.85121 L 902.14896,173.16533 L 902.60622,171.45066 L 903.63502,171.56497 L 904.66382,173.85121 L 903.4064,174.30845 L 899.5198,174.42277 L 899.97704,173.85121 z M 890.6035,174.65139 L 892.88972,172.02222 L 894.49009,172.02222 L 896.31908,173.50827 L 893.91854,174.53707 L 891.74662,175.56587 L 890.6035,174.65139 z M 902.28301,107.47825 L 903.81879,105.94247 L 905.19291,106.99327 L 905.75872,109.41819 L 904.06128,110.30732 L 902.28301,107.47825 z M 908.99194,101.57763 L 910.77021,103.43673 C 910.77021,103.43673 912.0635,103.51755 912.0635,103.19423 C 912.0635,102.87091 912.30599,101.17347 912.30599,101.17347 L 913.19513,100.36517 L 912.38682,98.586893 L 910.36606,99.31437 L 908.99194,101.57763 z M 820.32087,264.28945 L 821.45249,266.7952 L 821.61415,268.57347 L 822.74578,270.43257 C 822.74578,270.43257 823.63492,269.54343 823.63492,269.22011 C 823.63492,268.89679 822.90745,266.14855 822.90745,266.14855 L 822.17997,263.80446 L 820.32087,264.28945 z M 581.61931,82.059006 L 583.4483,80.001402 L 585.62022,79.201221 L 590.99286,75.314624 L 593.27908,74.743065 L 593.73634,75.200319 L 588.59232,80.344339 L 585.27728,82.287628 L 583.21967,83.202124 L 581.61931,82.059006 z M 667.79369,114.18719 L 668.44033,116.69293 L 671.67355,116.85459 L 672.96684,115.64213 C 672.96684,115.64213 672.88601,114.18719 672.56269,114.02552 C 672.23936,113.86386 670.94608,112.16642 670.94608,112.16642 L 668.76366,112.40891 L 667.14704,112.57057 L 666.82372,113.7022 L 667.79369,114.18719 z M 84.116548,12.340738 L 86.137312,12.179078 L 86.622294,13.553197 L 88.158073,11.936582 L 90.502155,11.936582 L 91.310458,13.472361 L 89.774678,15.169801 L 90.42133,15.978114 L 89.693853,17.998875 L 88.319734,18.403021 C 88.319734,18.403021 87.430596,18.483857 87.430596,18.160536 C 87.430596,17.837215 88.885551,15.573958 88.885551,15.573958 L 87.188111,15.008141 L 86.86479,16.463095 L 86.137312,17.109737 L 84.60153,14.84648 L 84.116548,12.340738 z M 457.2302,567.32304 L 456.66439,560.20996 L 453.91615,553.01604 L 453.35033,545.98379 L 454.88611,537.73908 L 458.20017,530.86849 L 461.67587,525.45284 L 464.82827,521.89629 L 465.47491,522.13879 L 460.70591,528.76689 L 456.34107,535.31417 L 454.3203,541.94226 L 453.99698,547.11542 L 454.88611,553.25854 L 457.47269,560.45246 L 457.95767,565.6256 L 458.11933,567.08056 L 457.2302,567.32304 z M 48.793607,337.03691 L 50.086895,338.57269 L 49.925235,339.86598 L 46.692014,339.78515 L 46.1262,338.57269 L 45.479556,337.11774 L 48.793607,337.03691 z M 50.733539,337.03691 L 51.945997,336.39027 L 55.50254,338.49186 L 58.5741,339.70431 L 57.684964,340.35097 L 53.158455,340.10847 L 51.541845,338.49186 L 50.733539,337.03691 z M 71.426153,356.84039 L 73.204418,359.18447 L 74.012731,360.15444 L 75.54851,360.72025 L 76.114317,359.2653 L 75.144354,357.48703 L 72.476951,355.46627 L 71.426153,355.62793 L 71.426153,356.84039 z M 69.971198,365.48925 L 71.749474,368.64164 L 72.961932,370.58158 L 71.506978,370.82406 L 70.213694,369.61161 C 70.213694,369.61161 69.486217,368.15666 69.486217,367.7525 C 69.486217,367.34836 69.486217,365.57008 69.486217,365.57008 L 69.971198,365.48925 z"/>
    <clipPath id="clipPath1902"><use xlink:href="#Map-outline"/></clipPath>
    <polygon id="point" points="-0.1624598481164531,0 0,0.5 0.1624598481164531,0" transform="scale(0.0616)" fill="white"/>
      <!-- "0.162..." = (tangent of 18 deg.) / 2 -->
    <g id="star">
      <use xlink:href="#point" transform="rotate(-108)"/>
      <use xlink:href="#point" transform="rotate( -36)"/>
      <use xlink:href="#point" transform="rotate(  36)"/>
      <use xlink:href="#point" transform="rotate( 108)"/>
      <use xlink:href="#point" transform="rotate( 180)"/>
    </g>
    <g id="row5">
      <use xlink:href="#star" x="-0.252"/>
      <use xlink:href="#star" x="-0.126"/>
      <use xlink:href="#star"/>
      <use xlink:href="#star" x="0.126"/>
      <use xlink:href="#star" x="0.252"/>
    </g>
    <g id="row6">
      <use xlink:href="#row5" x="-0.063"/>
      <use xlink:href="#star" x="0.315"/>
    </g>
    <g id="rowx4">
      <use xlink:href="#row6"/>
      <use xlink:href="#row5" y="0.054"/>
      <use xlink:href="#row6" y="0.108"/>
      <use xlink:href="#row5" y="0.162"/>
    </g>
    <g id="union">
      <use xlink:href="#rowx4" y="-0.216"/>
      <use xlink:href="#rowx4"/>
      <use xlink:href="#row6" y="0.216"/>
    </g>
    <rect id="stripe" width="1235" height="50" fill="#bf0a30"/>
  </defs>
  <path d="M84.116548,12.340738L86.137312,12.179078L86.622294,13.553197L88.158073,11.936582L90.502155,11.936582L91.310458,13.472361L89.774678,15.169801L90.42133,15.978114L89.693853,17.998875L88.319734,18.403021C88.319734,18.403021 87.430596,18.483857 87.430596,18.160536C87.430596,17.837215 88.885551,15.573958 88.885551,15.573958L87.188111,15.008141L86.86479,16.463095L86.137312,17.109737L84.60153,14.84648L84.116548,12.340738z M48.793607,337.03691L50.086895,338.57269L49.925235,339.86598L46.692014,339.78515L46.1262,338.57269L45.479556,337.11774L48.793607,337.03691z M50.733539,337.03691L51.945997,336.39027L55.50254,338.49186L58.5741,339.70431L57.684964,340.35097L53.158455,340.10847L51.541845,338.49186L50.733539,337.03691z M494,53.162479L493.84456,52.919988L493.19792,53.081649L492.8746,61.326333L462.74218,61.291062L461.64538,61.243718L433.22188,60.679691L414.63093,60.033049L388.11861,58.739765L363.17227,56.855896L361.88845,56.374463L331.21413,53.56663L301.95358,50.0101L272.69304,45.968588L240.36094,40.633793L221.93165,37.238923L189.208,30.306187L188.08467,30.145706L175.08853,27.617595L174.36801,27.215777L159.20739,23.821104L136.2516,18.162988L116.2057,12.504871L107.6377,10.564946L97.938071,7.8167177L93.573239,6.3617734L92.441615,7.1700758L92.118294,7.9783781L94.543201,12.828192L95.674825,15.41476L93.89656,18.97129L93.89656,21.234537L94.543201,22.689481L93.734899,24.467746L94.219881,27.700955L95.189843,28.994239L95.028183,30.287523L93.573239,30.449183L92.926597,28.509258L91.794974,26.084351L90.016708,24.629406L90.340029,22.52782L92.603276,22.042839L92.279955,20.264574L91.956634,19.13295L89.855048,20.426234L88.561764,21.557857L88.561764,23.982765L86.298518,24.144425L82.903645,23.174462L79.993756,21.719518L76.922205,21.072876L72.395712,18.97129L69.162503,17.031364L66.414275,14.444797L63.989368,11.534908L61.887782,11.049927L59.624535,20.426234L61.4028,23.659444L61.4028,31.580807L60.756158,34.490695L62.211103,41.603756L64.959331,44.351984L60.594498,44.998625L60.432837,48.716816L63.019405,49.84844L61.4028,53.889951L58.654572,54.213272L58.331251,57.123161L60.594498,60.033049L58.492912,62.619617L56.229665,69.086035L52.996456,79.108984L49.763246,85.575403L44.751772,99.639864L38.285353,113.21934L30.20233,125.82886L28.262404,128.73875L27.454102,137.30675L26.160818,143.28819L28.86901,146.81562L28.387579,147.77848L26.80746,152.50284L26.645799,159.93922L21.472664,171.74043L18.401116,174.327L18.077795,175.45862L16.299529,176.26693L14.844585,180.4701L14.036283,183.70331L16.784511,187.90648L18.401116,192.10965L19.532739,195.66618L19.209418,202.1326L17.431153,205.20415L16.784511,211.02393L15.814548,214.74212L17.592813,218.62197L20.341041,223.14846L22.604288,227.99828L23.897571,232.03979L23.574251,235.273L23.25093,235.75798L23.25093,237.85956L28.909046,244.16432L28.424065,246.58923L27.777423,248.85248L27.130781,250.7924L27.292441,259.03709L29.394027,262.75528L31.333953,265.34184L34.082181,265.82683L35.052144,268.57505L33.920521,272.13158L31.818934,273.74819L30.687311,273.74819L29.879009,277.62804L30.36399,280.53793L33.5972,284.90276L35.213804,290.23756L36.668748,294.92571L37.962032,297.99726L41.356902,303.81704L42.811846,306.4036L43.296828,309.31349L44.913432,310.28345L44.913432,312.70836L44.10513,314.64829L42.326865,321.76135L41.841883,323.70127L44.266791,326.4495L48.469963,326.93448L52.996456,328.71275L56.876307,330.81433L59.786196,330.81433L62.696084,333.88588L65.282651,338.7357L66.414275,340.99894L70.294126,343.10053L75.14394,343.90883L76.598884,346.01042L77.245526,349.24363L75.790582,349.89027L75.9522425,350" style="fill:none;stroke:#001C40;stroke-width:5;stroke-linecap:square;stroke-miterlimit:4;stroke-dasharray:none;stroke-opacity:1"/>
  <path d="M767.94269,577.91184L770.36761,577.2652L771.66089,577.02271L773.11585,574.67862L775.45993,573.06201L776.75322,573.547L778.45066,573.87032L778.85481,574.92111L775.37911,576.13357L771.17591,577.58852L768.83183,578.80098L767.94269,577.91184z M781.44139,572.90035L782.65385,573.95115L785.40209,571.84956L790.7369,567.64637L794.4551,563.7665L796.96085,557.1384L797.93082,555.44096L798.09248,552.04608L797.365,552.53106L796.39504,555.36013L794.94008,559.96746L791.70686,565.22146L787.34202,569.42464L783.94714,571.36457L781.44139,572.90035z M836.00199,331.45961L838.58857,328.95386L841.74095,326.36728L843.27673,325.72064L843.43839,323.69988L842.79175,317.55676L841.3368,315.21268L840.69015,313.35358L841.41763,313.11108L844.16587,318.60756L844.57002,323.05323L844.40836,326.44812L841.01348,327.98389L838.18441,330.40881L837.05279,331.62127L836.00199,331.45961z M899.97704,173.85121L902.14896,173.16533L902.60622,171.45066L903.63502,171.56497L904.66382,173.85121L903.4064,174.30845L899.5198,174.42277L899.97704,173.85121z M890.6035,174.65139L892.88972,172.02222L894.49009,172.02222L896.31908,173.50827L893.91854,174.53707L891.74662,175.56587L890.6035,174.65139z M902.28301,107.47825L903.81879,105.94247L905.19291,106.99327L905.75872,109.41819L904.06128,110.30732L902.28301,107.47825z M908.99194,101.57763L910.77021,103.43673C910.77021,103.43673 912.0635,103.51755 912.0635,103.19423C912.0635,102.87091 912.30599,101.17347 912.30599,101.17347L913.19513,100.36517L912.38682,98.586893L910.36606,99.31437L908.99194,101.57763z M820.32087,264.28945L821.45249,266.7952L821.61415,268.57347L822.74578,270.43257C822.74578,270.43257 823.63492,269.54343 823.63492,269.22011C823.63492,268.89679 822.90745,266.14855 822.90745,266.14855L822.17997,263.80446L820.32087,264.28945z M581.61931,82.059006L583.4483,80.001402L585.62022,79.201221L590.99286,75.314624L593.27908,74.743065L593.73634,75.200319L588.59232,80.344339L585.27728,82.287628L583.21967,83.202124L581.61931,82.059006z M667.79369,114.18719L668.44033,116.69293L671.67355,116.85459L672.96684,115.64213C672.96684,115.64213 672.88601,114.18719 672.56269,114.02552C672.23936,113.86386 670.94608,112.16642 670.94608,112.16642L668.76366,112.40891L667.14704,112.57057L666.82372,113.7022L667.79369,114.18719z M457.2302,567.32304L456.66439,560.20996L453.91615,553.01604L453.35033,545.98379L454.88611,537.73908L458.20017,530.86849L461.67587,525.45284L464.82827,521.89629L465.47491,522.13879L460.70591,528.76689L456.34107,535.31417L454.3203,541.94226L453.99698,547.11542L454.88611,553.25854L457.47269,560.45246L457.95767,565.6256L458.11933,567.08056L457.2302,567.32304z M71.426153,356.84039L73.204418,359.18447L74.012731,360.15444L75.54851,360.72025L76.114317,359.2653L75.144354,357.48703L72.476951,355.46627L71.426153,355.62793L71.426153,356.84039z M69.971198,365.48925L71.749474,368.64164L72.961932,370.58158L71.506978,370.82406L70.213694,369.61161C70.213694,369.61161 69.486217,368.15666 69.486217,367.7525C69.486217,367.34836 69.486217,365.57008 69.486217,365.57008L69.971198,365.48925z M75.9522425,350L76.113903,350.86023L79.347114,351.66853L82.095342,351.8302L85.005231,356.51835L88.885085,360.72152L89.693387,362.98477L92.279955,367.18794L92.603276,370.42115L92.603276,379.79746L93.088257,381.57572L103.11121,383.03067L122.83378,385.77889L136.74132,386.75359L137.74699,387.50041L135.11998,389.65874L134.79666,391.11369L135.28164,392.08365L154.19591,402.75324L166.32045,410.35128L181.03155,418.91929L197.84424,428.94224L210.13044,431.36715L235.25838,434.07206L236.86315,434.87445L252.32382,436.8636L253.6171,426.84065L270.26813,429.42722L282.72425,431.045L283.68593,431.04382L285.62584,431.52878L288.21243,434.43865L289.66738,438.80352L294.35554,441.06677L295.64882,444.29998L302.76189,452.22135L304.05517,453.83795L309.06664,455.93954L310.19827,458.04112L311.81487,459.01109L312.29985,461.75931L315.53306,468.22573L315.53306,476.30876L317.79631,480.99691L325.23269,488.75661L330.40583,490.8582L332.18409,492.79812L332.18409,493.44477L336.06394,495.70801L338.00387,496.35465L339.78213,497.48628L342.3687,498.45624L344.79361,496.03133L349.15844,489.88824L350.1284,486.17004L352.39165,482.93684L355.94818,481.48189L360.47467,479.70363L363.54622,481.96687L370.9826,482.61351L377.77234,483.74514L380.35891,485.84672L380.35891,486.97835L382.94548,490.0499L388.92692,495.38469L389.08858,496.83964L390.86684,498.77956L391.67514,502.98273L397.00994,515.26893L396.84828,517.20885L401.05145,519.79542L404.60798,526.4235L408.00285,530.78833L411.23606,532.08162L412.85266,534.34486L411.55938,538.7097L412.20602,539.67966L413.49931,540.3263L413.17599,543.72117L412.52934,544.36781L413.17599,546.63106L416.40919,548.57099L417.70248,555.0374L419.80406,558.91726L427.40211,562.31213L432.57524,563.44375L436.77841,566.5153L440.01162,567.16194L441.30491,566.67696L446.80136,567.80858L452.45948,571.68843L455.53103,569.74851L456.50099,568.29356L454.72273,565.54533L453.75276,559.40224L451.9745,552.45084L451.1662,550.02593L451.9745,545.49944L453.10612,541.61959L454.3994,537.09309L455.85435,531.59664L453.5911,529.65671L454.56107,527.71679L458.60258,527.39346L462.48243,521.89701L465.8773,521.25037L471.69708,517.69384L473.47534,516.23889L479.7801,512.84402L485.43821,510.41911L490.77301,507.18591L493.52124,505.08432L499.17935,499.74952L500.47264,498.94122L502.57422,497.48628L505.16079,495.54635L506.13075,493.60643L515.99204,489.07993L521.65692,487.49475L522.29848,487.36687L526.98496,485.84672L535.06798,485.5234L545.41425,489.07993L551.88067,490.21156L555.59886,488.75661L558.83207,489.88824L562.06528,490.8582L562.87358,488.75661L559.64037,487.62499L557.0538,488.10997L554.30557,486.49337C554.30557,486.49337 554.46724,485.20008 555.11388,485.03842C555.76052,484.87676 558.18543,484.06846 558.18543,484.06846L559.96369,485.5234L561.74196,484.55344L564.97517,485.20008L566.43011,487.62499L566.75343,489.88824L571.27992,490.21156L573.05819,491.98982L572.24989,493.60643L570.9566,494.41473L572.57321,496.03133L580.97955,499.58786L584.53608,498.29458L585.50605,495.86967L588.09261,495.22303L589.87088,493.76809L591.16416,494.73805L591.97246,497.64794L589.70922,498.45624L590.35586,499.10288L593.75073,497.8096L596.01398,494.41473L596.82228,493.92975L594.72069,493.60643L595.52899,491.98982L595.36733,490.53488L597.46892,490.0499L598.60054,488.75661L599.24718,489.56491C599.24718,489.56491 599.08552,492.63646 599.89383,492.63646C600.70213,492.63646 604.097,493.28311 604.097,493.28311L608.13851,495.22303L609.10847,496.67798L612.01836,496.67798L613.14999,497.64794L615.41323,494.57639L615.41323,493.12144L614.11995,493.12144L610.72508,490.37322L604.9053,489.56491L601.67209,487.30167L602.80372,484.55344L605.06696,484.87676L605.22862,484.23012L603.45036,483.26016L603.45036,482.77517L606.68357,482.77517L608.46183,479.70363L607.16855,477.7637L606.84523,475.01547L605.39028,475.17713L603.45036,477.27872L602.80372,479.86529L599.73217,479.21864L598.7622,477.44038L600.54047,475.50045L602.56122,473.7222L603.31778,473.20692L604.42032,472.4289L607.00689,468.22573L608.78515,469.03403L615.57489,467.09411L617.67648,467.41743L619.13142,468.22573L624.30456,468.22573L624.55882,466.96958L625.59784,466.77079L628.34607,466.77079L628.99271,466.93245L630.28599,464.18422L631.74094,459.81939L634.00419,460.46603L637.07573,466.44747L637.07573,467.41743L634.32751,469.35736L637.07573,469.68068L642.61779,467.10778L643.29612,467.22209L646.77536,466.60913L652.7568,464.50754L658.73824,464.02256L663.10307,463.37592L670.70111,465.15418L678.78414,469.03403L680.40074,470.48898L683.31063,471.6206L684.92723,473.56053L685.25055,476.30876L688.48376,475.01547L692.36361,475.01547L695.92015,473.07555L699.63834,469.51902L702.70988,469.68068L703.19487,468.54905L702.38656,467.57909L702.54822,465.63917L706.58974,464.83086L709.1763,464.83086L712.08619,466.28581L716.28936,467.74075L718.71427,471.45894L721.4625,472.4289L722.59412,475.82377L725.98899,477.44038L727.6056,480.02695L729.54552,480.67359L734.71866,481.96687L736.01194,485.03842L739.08349,488.75661L739.08349,498.29458L737.62855,502.98273L737.95187,505.73096L739.24515,510.58078L741.02342,514.62229L741.83172,514.13731L743.28666,509.61081L740.7001,508.64085L740.37677,507.99421L741.99338,507.34757L746.51987,508.31753L746.68153,509.93413L743.44832,515.43059L741.34674,517.8555L744.90327,521.57369L747.48983,524.64524L750.39972,529.98003L753.30961,533.85988L755.4112,538.87136L757.18946,539.19468L758.80607,537.09309L760.58433,538.22472L763.1709,542.26623L763.81754,545.82276L766.88909,550.18759L767.69739,548.89431L771.57724,549.21763L775.13377,551.48087L778.52864,556.65401L779.33695,560.04888L779.66027,562.95877L780.79189,563.92873L782.08518,564.41371L784.51008,563.44375L785.96503,561.82714L789.84488,561.66548L792.91643,560.21054L795.66465,556.97733L795.17967,555.0374L794.85635,552.6125L795.50299,550.67257L795.17967,548.73265L797.60458,547.43936L797.9279,544.04449L797.28126,542.26623L796.79628,530.30335L795.50299,522.70531L790.9765,514.46063L787.41997,508.64085L784.8334,503.30605L781.92351,500.39617L779.01363,492.95978L779.82193,491.6665L780.95355,490.37322L779.33695,487.46333L775.29544,483.74514L770.44562,478.24868L766.72743,471.94392L761.39264,462.56762L757.66294,452.82536L755.39728,445.50676L755.37832,444.61734L754.6029,438.31855L756.86614,428.2956L758.32109,424.09242L757.8361,421.50586L761.17051,415.26156L760.66021,413.90988L761.23097,412.93785L763.33256,411.64457L768.34404,406.14811L767.37407,402.9149L770.28396,402.75324L773.84049,399.35837L775.4571,398.55007L777.72034,395.1552L780.46857,392.40697L782.57016,388.85044L784.99506,388.2038L786.12669,385.45557L787.74329,384.64727L788.22827,378.34251L790.81484,372.19941L796.23601,366.74107L796.51628,365.93803L801.96941,364.60137L806.65757,364.11639L807.14255,361.69148L809.08247,355.22506L812.47734,350.53691L818.94376,345.20212L824.1169,342.77721L826.86512,342.13057L827.99675,342.61555L829.29003,342.61555L832.36158,337.76573L834.30151,334.2092L833.00822,334.69419L830.74498,336.95743L830.09833,335.34083L825.89516,335.34083L827.83509,329.03607L827.02679,327.74279L825.08686,327.74279L825.08686,326.77282L824.76354,325.47954L826.38014,326.77282L827.83509,326.93448L830.25999,327.2578L833.97819,325.6412L835.27147,322.73131L835.91811,320.62972L838.50468,319.33644L838.828,315.13327L838.0197,314.48663L840.4446,314.32497L839.79796,312.06172L837.37306,309.63681L833.81653,303.17039L832.10653,298.47179L831.18615,297.54706L827.57853,291.53513L821.77751,293.22096L820.20529,291.72666L822.75833,290.34535L822.26654,287.82122L820.49343,286.03584L820.37189,284.62394L818.0909,283.08107L818.00194,281.46555L820.69593,281.56049L820.91773,280.17589L819.68832,279.38612L820.16727,277.45573L818.79254,276.35318L819.23203,271.6631L818.36396,270.46308L815.17352,270.06055L813.02121,267.97209L808.16474,267.02998L805.21607,266.06202L805.41802,265.40356L809.72912,265.34184L812.80066,266.31181L814.90225,266.63513L815.87221,264.53354L814.41727,262.43196L814.41727,260.65369L811.99236,258.5521L809.89078,253.05565L811.18406,247.72085L811.0224,245.61927L809.72912,244.32598C809.72912,244.32598 811.18406,242.70938 811.18406,242.06274C811.18406,241.41609 811.66904,239.96115 811.66904,239.96115L813.60897,238.66787L815.54889,237.05126L816.03387,238.02123L814.57893,239.63783L813.28565,243.35602L813.60897,244.48764L815.38723,244.81096L815.87221,250.30742L813.77063,251.27738L814.09395,254.83391L814.57893,254.67225L815.71055,252.73233L817.32716,254.51059L815.71055,255.80388L815.38723,259.19875L817.9738,262.59362L821.85365,263.0786L823.47026,262.2703L826.70681,266.45323L828.06516,266.98953L828.76271,267.29867L828.90662,269.2457L828.13975,272.34331L826.55275,276.52638L826.10686,281.97549L827.5772,286.6163L829.74147,284.70016L831.56944,279.722L831.10769,276.33156L831.52578,271.74574L834.44573,267.96663L835.21614,264.74879L834.71883,264.19258L836.72641,260.16871L836.95336,255.30492L836.7274,254.59089L834.46317,247.23587L833.4932,247.72085L829.93667,245.29595L828.15841,240.60779L826.21848,237.05126L823.95524,236.0813L821.85365,232.52477L822.35259,230.42318L822.86297,230.92722L823.95524,233.17141L827.18845,236.0813L832.03826,238.34455L836.07977,238.99119L836.24143,240.44613L835.43313,241.41609L835.75645,244.16432L836.56475,244.16432L838.66634,241.73942L839.47464,236.8896L842.22287,232.84809L845.29442,226.38167L846.42604,220.88522L845.7794,219.75359L845.61774,210.37728L844.00113,206.98242L842.86951,207.79072L840.12128,208.11404L839.6363,207.62906L840.76793,206.65909L842.86951,204.71917L842.93257,203.62534L843.47304,203.5396L844.64778,204.07253L848.68929,202.9409L854.50907,201.00098L857.09563,200.03101L864.20869,194.69622L868.08854,191.78633L871.48341,188.2298L867.28024,186.6132L865.98696,188.06814L863.07707,190.81637L855.15571,194.69622L852.89246,194.53456L851.27586,193.88792L850.14423,194.53456L847.88099,197.12113L846.42604,198.41441L845.13276,198.73773L844.80944,197.44445L846.74936,195.66618L845.95281,193.98776L846.96715,194.21757L851.9225,190.81637L855.47903,187.58316L857.41895,185.48157L858.22726,186.12821L860.97548,184.67327L866.14862,183.54165L873.19331,180.05038L874.07001,179.82344L876.97987,178.85349L879.40478,176.91357L880.5364,175.1353L881.82968,175.29696L884.74063,173.76056L885.25981,173.3875L887.32614,172.38707L886.84116,170.12383L887.64946,168.66888L890.55935,167.21394L891.36765,170.28549L890.88267,172.06375L888.45776,173.5187L888.45776,174.48866L890.39769,173.03372L894.27754,168.50722L898.15739,166.5673L902.36056,165.11235L902.03724,162.68745L901.06728,159.77756L899.12735,157.35265L897.34909,156.54435L895.2475,156.70601L894.76252,157.19099L895.73248,158.48427L897.18743,157.67597L899.28901,159.29258L900.09732,162.0408L898.31905,163.81907L896.05581,164.78903L892.49928,164.30405L888.61942,158.32261L886.35618,155.73605L884.57791,155.73605L883.44629,156.54435L881.50636,153.95778L881.82968,152.50284L884.25459,147.3297L881.36535,142.91686L880.79902,142.42476L881.66802,141.34826L882.75824,138.05724L883.13131,136.93803L884.25459,130.67867L884.41625,126.31384L885.8712,125.02056L884.90123,121.78735L887.97278,118.23082L889.58939,119.68576L890.88267,119.20078L896.21747,116.12923L896.54079,113.21934L899.45068,112.73436L901.06728,110.14779L900.90562,108.53119L900.5823,105.45964L901.3906,104.16636L901.06728,103.03473L899.774,101.57979L901.87558,100.28651L903.65385,103.51972L905.10879,103.19639L905.43211,104.48968L905.43211,106.10628L907.37204,106.26794L907.85702,103.51972L908.342,102.87307L906.7254,101.41813L907.69536,99.963185L910.12027,98.508241L911.09023,97.053296L912.86849,96.891636C912.86849,96.891636 913.19182,98.993222 913.83846,98.993222C914.4851,98.993222 915.13174,98.993222 915.13174,98.993222L919.98155,93.496766L923.37642,90.425217L925.31635,89.778575L927.41794,85.090422L927.41794,83.150496L925.15469,79.432305L923.21476,77.330719L920.46654,77.49238L920.95152,78.624003L920.78986,79.108984L919.98155,79.108984L917.07167,76.845738L916.91001,71.995924L916.1017,70.055998L910.12027,70.055998L901.06728,40.148811L899.12735,39.178849L893.14592,36.753942L891.69097,36.592281L889.91271,38.370546L885.8712,41.280435L885.8712,42.250397L885.06289,43.0587L882.31467,42.412058L881.02138,40.148811L881.02138,39.017188L879.7281,38.855528L878.43481,38.855528L876.33323,43.0587L873.42334,51.950026L871.64507,56.79984L871.80674,61.649654L871.9684,63.104598L871.16009,65.852826L870.35179,66.822789L870.35179,72.804226L872.29172,75.229133L870.83677,79.270645L868.2502,83.958798L867.4419,89.455254L867.4419,92.041822L865.92811,91.631923L864.50757,91.750088L863.65083,92.208542L862.75375,92.203482L862.10711,93.820087L861.46047,93.335106L860.4905,92.365143L859.03556,94.305068L858.98709,99.337122L858.06661,99.63916L831.81913,106.3866L831.19711,106.78334L823.63192,108.85451L819.10542,110.30945L815.87221,110.14779L810.37576,111.44108L807.2944,112.68702L804.8793,114.51263L802.77772,116.93753L800.02949,120.65572L797.1196,125.18222L795.66465,128.09211L795.01801,128.90041L789.19824,134.39686L789.3599,136.98343L790.1682,138.11506L791.94646,138.92336L793.72473,138.92336L793.72473,140.3783L792.59311,142.47989L792.91643,143.93483L794.37137,146.03642L794.20971,148.29966L792.26978,149.43129L790.1682,149.43129L788.55159,151.37121L786.77333,154.60442L784.67174,156.38269L779.49861,156.86767L776.91204,157.99929L774.81045,159.29258L773.19385,159.13092L771.25392,157.83763L764.94917,157.99929L761.71596,158.48427L757.67444,159.77756L753.30961,161.2325L750.39972,163.01077L752.33965,169.15387L754.11791,169.31553L755.4112,172.38707L755.57286,173.35704L754.44123,174.327L752.33965,177.07523L751.85467,178.69183L749.91474,180.4701L748.13648,181.60172L747.16651,183.21833L745.87323,184.34995L744.44513,185.47533L743.4394,185.99452L737.95187,191.62467L736.65858,192.10965L732.45629,195.11854L731.43589,195.0077L725.34235,199.06105L721.4625,201.3243L718.06763,205.04249L714.02612,208.92234L710.79291,209.73064L707.88302,210.21562L702.38656,212.80219L700.28498,212.96385L696.89011,209.8923L691.71697,210.53895L689.13041,209.084L686.74934,207.73317L685.59749,207.4083L685.73554,206.82075L685.8972,205.36581L687.99878,201.64762L689.99934,199.90977L689.77705,194.85788L691.37404,193.26089L692.46466,192.91795L692.68694,189.36142L694.22271,186.3303L695.2735,186.93652L695.43516,187.58316L696.24347,187.74482L698.18339,186.77486L697.86007,177.23689L694.62686,168.9922L692.36361,159.93922L689.93871,156.70601L687.35214,154.92774L685.73554,156.05937L681.85568,157.83763L679.91576,162.84911L677.16753,166.5673L676.03591,167.21394L674.58096,166.5673C674.58096,166.5673 671.9944,165.11235 672.15606,164.46571C672.31772,163.81907 672.64104,159.45424 672.64104,159.45424L676.03591,158.16095L676.84421,154.76608L677.49085,152.17952L679.91576,150.56291L679.59244,140.53996L677.97583,138.27672L676.68255,137.46841L675.87425,135.36683L676.68255,134.55853L678.29915,134.88185L678.46081,133.26524L676.03591,131.00199L674.74262,128.41543L672.15606,128.41543L667.62956,126.96048L662.13311,123.56561L659.38488,123.56561L658.73824,124.21226L657.76827,123.72727L654.69673,121.46403L651.78684,123.24229L648.87695,125.50554L649.20027,129.06207L650.17023,129.38539L652.27182,129.87037L652.7568,130.67867L650.17023,131.48698L647.58367,131.8103L646.12872,133.58856L645.8054,135.69015L646.12872,137.30675L646.45204,142.80321L642.89551,144.9048L642.24887,144.74313L642.24887,140.53996L643.54215,138.11506L644.1888,135.69015L643.38049,134.88185L641.44057,135.69015L640.4706,139.89332L637.72238,141.02494L635.94411,142.96487L635.78245,143.93483L636.42909,144.74313L635.78245,147.3297L633.5192,147.81468L633.5192,148.94631L634.32751,151.37121L633.19588,157.51431L631.57928,161.55582L632.22592,166.24398L632.7109,167.3756L631.9026,169.80051L631.57928,170.60881L631.25596,173.35704L634.81249,179.33847L637.72238,185.80489L639.17732,190.65471L638.36902,195.34286L637.39906,201.3243L634.97415,206.49743L634.65083,209.24566L631.39196,212.33081L630.36734,213.12513L627.53777,214.74212L625.43618,216.68204L624.30456,217.00536L622.84961,216.0354L619.77855,215.14589L618.91895,215.34019L618.64644,214.4188L617.83814,211.83223L616.54486,208.11404L614.92825,206.33577L613.47331,203.74921L613.23974,198.26025L612.94089,197.18116L613.31165,194.21124L611.69504,189.68474L611.0484,183.54165L609.91678,181.11674L610.88674,178.04519L611.69504,175.1353L613.14999,172.54874L612.50334,169.15387L611.8567,165.59734L612.34168,163.81907L614.28161,161.39416L614.44327,158.64593L613.63497,157.35265L614.28161,154.76608L614.76659,151.53287L617.51482,145.87476L620.42471,139.08502L620.58637,136.82177L620.26305,135.85181L619.45474,136.33679L615.25157,142.64155L612.50334,146.68306L610.56342,148.46133L609.75512,150.72457L608.30017,151.53287L607.16855,153.4728L605.7136,153.14948L605.55194,151.37121L606.84523,148.94631L608.94681,144.25815L610.72508,142.64155L611.8264,140.34999L612.39377,139.45774L615.57489,132.45694L616.54486,128.41543L618.48478,124.05059L619.29308,123.88893L620.42471,125.50554L621.07135,125.50554L625.59784,123.08063L627.05279,124.69724L627.53777,124.8589L628.83105,123.72727L629.96267,120.65572L632.38758,119.84742L639.33898,119.20078L641.27891,116.61421L646.45204,116.45255L652.27182,117.74584L654.05008,117.74584L657.28329,116.29089L659.54654,116.45255L661.64813,115.80591L665.36632,116.29089L666.17462,116.61421L667.4679,116.29089L666.17462,115.32093L664.88134,114.67429L661.64813,111.60274L661.64813,104.65134L660.19318,104.16636L659.06156,105.29798L652.91846,106.91458L650.97853,107.39957L648.06865,106.59126L647.58367,106.26794L647.58367,100.60983L646.12872,100.44817L643.54215,101.74145L639.01566,103.68138L632.38758,104.0047L628.99271,105.13632L624.9512,108.69285L623.33459,109.66281L622.20297,109.66281L620.90969,110.47112L619.29308,109.98613L617.67648,108.69285L616.22153,109.66281L612.34168,109.82447L609.59345,107.07625L608.13851,104.0047L606.68357,102.87307L603.45036,101.90311L601.18711,101.90311L599.89383,100.60983L596.3373,103.51972L595.36733,104.65134L594.55903,104.16636L594.88235,101.57979L597.30726,98.34658L597.79224,95.921673L600.05549,95.113371L601.51043,92.041822L605.22862,91.071859L605.55194,90.101896L604.42032,88.970273L599.73217,89.455254L595.36733,91.880161L593.10409,94.143408L591.8108,95.921673L590.03254,96.729975L588.09261,99.639864L587.93095,100.93315L583.56612,103.03473L581.14121,104.97466L575.15978,105.94462L574.51313,106.59126L574.51313,107.56123L570.9566,109.82447L568.20837,110.63278L567.49209,111.21318L566.47456,111.63491L565.94513,112.89602L564.81351,112.73436L564.16686,111.60274L561.41864,110.79444L560.28701,110.9561L558.50875,111.92606L557.53878,111.27942L558.18543,109.33949L560.12535,106.26794L561.25697,105.13632L559.31705,103.68138L557.21546,104.48968L554.30557,106.4296L546.86919,109.66281L543.9593,110.30945L541.04942,109.82447L540.06769,108.94622L539.63268,108.39354L543.47432,105.45964L544.76761,105.29798L549.2941,100.28651L551.07237,99.478203L553.33561,95.598352L555.76052,92.041822L558.83207,89.455254L563.60681,87.448357L572.85259,83.387229L576.79131,81.550104L577.40341,79.270645L572.9635,79.64131L572.24989,80.725589L571.60324,80.725589L569.82498,77.65404L560.93365,77.977361L559.96369,78.785663L558.99373,78.785663L558.50875,77.49238L557.70044,75.714115L555.11388,76.199096L551.88067,79.432305L550.26406,80.240608L547.19251,80.240608L544.60595,79.270645L544.60595,77.169059L543.31266,77.007398L542.82768,77.49238L540.24111,76.199096L539.75613,73.289207L538.30119,73.774189L537.81621,74.744152L535.3913,74.25917L530.0565,71.834263L526.17665,69.247696L523.26676,69.247696L521.97348,68.277733L519.71023,68.924375L518.57861,70.055998L518.25529,71.349282L513.40548,71.349282L513.40548,69.247696L507.10072,68.924375L506.7774,67.469431L501.92758,67.469431L500.31098,65.852826L498.85603,59.709728L498.04773,54.213272L496.10781,53.40497L494,53.162479" style="fill:none;stroke:#70081c;stroke-width:5;stroke-linecap:square;stroke-miterlimit:4;stroke-dasharray:none;stroke-opacity:1"/>
  <g clip-path="url(#clipPath1902)" id="United-States-Flag">
  <use xlink:href="#Map-outline" style="fill:white;fill-opacity:1;fill-rule:evenodd;stroke:none"/>
  <rect width="1235" height="650" fill="white"/>
  <use xlink:href="#stripe"/>
  <use xlink:href="#stripe" y="100"/>
  <use xlink:href="#stripe" y="200"/>
  <use xlink:href="#stripe" y="300"/>
  <use xlink:href="#stripe" y="400"/>
  <use xlink:href="#stripe" y="500"/>
  <use xlink:href="#stripe" y="600"/>
  <rect width="494" height="350" fill="#002868"/>
  <use xlink:href="#union" transform="translate(247,175) scale(650)"/>
  </g>
</svg>
